<?xml version="1.0" encoding="UTF-8" standalone="no"?>
<!DOCTYPE svg PUBLIC "-//W3C//DTD SVG 1.1//EN"
 "http://www.w3.org/Graphics/SVG/1.1/DTD/svg11.dtd">
<!-- Generated by graphviz version 2.40.1 (20161225.0304)
 -->
<!-- Title: state transitions Pages: 1 -->
<svg width="313pt" height="447pt"
 viewBox="0.00 0.00 312.78 447.00" xmlns="http://www.w3.org/2000/svg" xmlns:xlink="http://www.w3.org/1999/xlink">
<g id="graph0" class="graph" transform="scale(1 1) rotate(0) translate(4 443)">
<title>state transitions</title>
<polygon fill="#ffffff" stroke="transparent" points="-4,4 -4,-443 308.779,-443 308.779,4 -4,4"/>
<g id="clust1" class="cluster">
<title>cluster_memory transaction</title>
<path fill="none" stroke="#000000" stroke-width="2" d="M173,-8C173,-8 278,-8 278,-8 284,-8 290,-14 290,-20 290,-20 290,-324 290,-324 290,-330 284,-336 278,-336 278,-336 173,-336 173,-336 167,-336 161,-330 161,-324 161,-324 161,-20 161,-20 161,-14 167,-8 173,-8"/>
<text text-anchor="start" x="173.329" y="-317.2" font-family="Helvetica,sans-Serif" font-size="12.00" fill="#000000">memory transaction</text>
</g>
<!-- initial -->
<g id="node1" class="node">
<title>initial</title>
<ellipse fill="#000000" stroke="#000000" stroke-width="2" cx="163" cy="-433.5" rx="5.5" ry="5.5"/>
</g>
<!-- idle -->
<g id="node2" class="node">
<title>idle</title>
<polygon fill="transparent" stroke="transparent" stroke-width="2" points="191,-400 135,-400 135,-364 191,-364 191,-400"/>
<text text-anchor="start" x="153.6664" y="-378.2" font-family="Helvetica,sans-Serif" font-size="12.00" fill="#000000">idle</text>
<path fill="none" stroke="#000000" stroke-width="2" d="M147.3333,-365C147.3333,-365 178.6667,-365 178.6667,-365 184.3333,-365 190,-370.6667 190,-376.3333 190,-376.3333 190,-387.6667 190,-387.6667 190,-393.3333 184.3333,-399 178.6667,-399 178.6667,-399 147.3333,-399 147.3333,-399 141.6667,-399 136,-393.3333 136,-387.6667 136,-387.6667 136,-376.3333 136,-376.3333 136,-370.6667 141.6667,-365 147.3333,-365"/>
</g>
<!-- initial&#45;&gt;idle -->
<g id="edge2" class="edge">
<title>initial&#45;&gt;idle</title>
<path fill="none" stroke="#000000" d="M163,-427.9886C163,-423.6293 163,-417.1793 163,-410.4801"/>
<polygon fill="#000000" stroke="#000000" points="166.5001,-410.0122 163,-400.0122 159.5001,-410.0122 166.5001,-410.0122"/>
<text text-anchor="middle" x="164.3895" y="-411" font-family="Helvetica,sans-Serif" font-size="10.00" fill="#000000"> </text>
</g>
<!-- updatePot -->
<g id="node3" class="node">
<title>updatePot</title>
<polygon fill="transparent" stroke="transparent" stroke-width="2" points="76,-298 0,-298 0,-262 76,-262 76,-298"/>
<text text-anchor="start" x="10.6514" y="-276.2" font-family="Helvetica,sans-Serif" font-size="12.00" fill="#000000">updatePot</text>
<path fill="none" stroke="#000000" stroke-width="2" d="M12.3333,-263C12.3333,-263 63.6667,-263 63.6667,-263 69.3333,-263 75,-268.6667 75,-274.3333 75,-274.3333 75,-285.6667 75,-285.6667 75,-291.3333 69.3333,-297 63.6667,-297 63.6667,-297 12.3333,-297 12.3333,-297 6.6667,-297 1,-291.3333 1,-285.6667 1,-285.6667 1,-274.3333 1,-274.3333 1,-268.6667 6.6667,-263 12.3333,-263"/>
</g>
<!-- idle&#45;&gt;updatePot -->
<g id="edge3" class="edge">
<title>idle&#45;&gt;updatePot</title>
<path fill="none" stroke="#000000" d="M134.8675,-378.286C107.6508,-374.1343 68.9837,-366.5778 58.226,-356 45.6076,-343.5926 40.5818,-324.2679 38.695,-308.2104"/>
<polygon fill="#000000" stroke="#000000" points="42.1821,-307.9089 37.8601,-298.2357 35.2065,-308.4928 42.1821,-307.9089"/>
<text text-anchor="start" x="59" y="-347" font-family="Helvetica,sans-Serif" font-size="10.00" fill="#000000">CMD_UPDATEPOT &#160;&#160;</text>
</g>
<!-- forward -->
<g id="node5" class="node">
<title>forward</title>
<polygon fill="transparent" stroke="transparent" stroke-width="2" points="233.5,-298 172.5,-298 172.5,-262 233.5,-262 233.5,-298"/>
<text text-anchor="start" x="183.5002" y="-276.2" font-family="Helvetica,sans-Serif" font-size="12.00" fill="#000000">forward</text>
<path fill="none" stroke="#000000" stroke-width="2" d="M184.8333,-263C184.8333,-263 221.1667,-263 221.1667,-263 226.8333,-263 232.5,-268.6667 232.5,-274.3333 232.5,-274.3333 232.5,-285.6667 232.5,-285.6667 232.5,-291.3333 226.8333,-297 221.1667,-297 221.1667,-297 184.8333,-297 184.8333,-297 179.1667,-297 173.5,-291.3333 173.5,-285.6667 173.5,-285.6667 173.5,-274.3333 173.5,-274.3333 173.5,-268.6667 179.1667,-263 184.8333,-263"/>
</g>
<!-- idle&#45;&gt;forward -->
<g id="edge1" class="edge">
<title>idle&#45;&gt;forward</title>
<path fill="none" stroke="#000000" d="M160.8778,-363.9281C160.6614,-357.5255 161.0394,-350.3402 162.863,-344 166.6963,-330.6729 174.21,-317.4369 181.7101,-306.4902"/>
<polygon fill="#000000" stroke="#000000" points="184.6454,-308.4035 187.6515,-298.244 178.966,-304.3114 184.6454,-308.4035"/>
<text text-anchor="start" x="162" y="-347" font-family="Helvetica,sans-Serif" font-size="10.00" fill="#000000">CMD_READ | CMD_WRITE &#160;&#160;</text>
</g>
<!-- memory transaction -->
<!-- memory transaction&#45;&gt;idle -->
<g id="edge4" class="edge">
<title>memory transaction&#45;&gt;idle</title>
<path fill="none" stroke="#000000" d="M289.9965,-292.4606C299.4167,-308.8811 312.003,-337.8061 297,-356 285.0274,-370.5189 236.3344,-377.0301 201.0918,-379.8812"/>
<polygon fill="#000000" stroke="#000000" points="200.8102,-376.3924 191.0966,-380.6227 201.3282,-383.3732 200.8102,-376.3924"/>
<text text-anchor="middle" x="303.3895" y="-347" font-family="Helvetica,sans-Serif" font-size="10.00" fill="#000000"> </text>
</g>
<!-- forwardWait -->
<g id="node6" class="node">
<title>forwardWait</title>
<polygon fill="transparent" stroke="transparent" stroke-width="2" points="254.5,-216 169.5,-216 169.5,-180 254.5,-180 254.5,-216"/>
<text text-anchor="start" x="180.5026" y="-194.2" font-family="Helvetica,sans-Serif" font-size="12.00" fill="#000000">forwardWait</text>
<path fill="none" stroke="#000000" stroke-width="2" d="M181.8333,-181C181.8333,-181 242.1667,-181 242.1667,-181 247.8333,-181 253.5,-186.6667 253.5,-192.3333 253.5,-192.3333 253.5,-203.6667 253.5,-203.6667 253.5,-209.3333 247.8333,-215 242.1667,-215 242.1667,-215 181.8333,-215 181.8333,-215 176.1667,-215 170.5,-209.3333 170.5,-203.6667 170.5,-203.6667 170.5,-192.3333 170.5,-192.3333 170.5,-186.6667 176.1667,-181 181.8333,-181"/>
</g>
<!-- forward&#45;&gt;forwardWait -->
<g id="edge5" class="edge">
<title>forward&#45;&gt;forwardWait</title>
<path fill="none" stroke="#000000" d="M204.9974,-261.8015C206.1393,-251.3976 207.5964,-238.1215 208.8855,-226.3768"/>
<polygon fill="#000000" stroke="#000000" points="212.3962,-226.4698 210.0082,-216.1476 205.438,-225.706 212.3962,-226.4698"/>
<text text-anchor="middle" x="209.3895" y="-236" font-family="Helvetica,sans-Serif" font-size="10.00" fill="#000000"> </text>
</g>
<!-- reverse -->
<g id="node7" class="node">
<title>reverse</title>
<polygon fill="transparent" stroke="transparent" stroke-width="2" points="243,-134 181,-134 181,-98 243,-98 243,-134"/>
<text text-anchor="start" x="191.999" y="-112.2" font-family="Helvetica,sans-Serif" font-size="12.00" fill="#000000">reverse</text>
<path fill="none" stroke="#000000" stroke-width="2" d="M193.3333,-99C193.3333,-99 230.6667,-99 230.6667,-99 236.3333,-99 242,-104.6667 242,-110.3333 242,-110.3333 242,-121.6667 242,-121.6667 242,-127.3333 236.3333,-133 230.6667,-133 230.6667,-133 193.3333,-133 193.3333,-133 187.6667,-133 182,-127.3333 182,-121.6667 182,-121.6667 182,-110.3333 182,-110.3333 182,-104.6667 187.6667,-99 193.3333,-99"/>
</g>
<!-- forwardWait&#45;&gt;reverse -->
<g id="edge6" class="edge">
<title>forwardWait&#45;&gt;reverse</title>
<path fill="none" stroke="#000000" d="M212,-179.8015C212,-169.3976 212,-156.1215 212,-144.3768"/>
<polygon fill="#000000" stroke="#000000" points="215.5001,-144.1476 212,-134.1476 208.5001,-144.1476 215.5001,-144.1476"/>
<text text-anchor="middle" x="213.3895" y="-154" font-family="Helvetica,sans-Serif" font-size="10.00" fill="#000000"> </text>
</g>
<!-- reverseWait -->
<g id="node8" class="node">
<title>reverseWait</title>
<polygon fill="transparent" stroke="transparent" stroke-width="2" points="254.5,-52 169.5,-52 169.5,-16 254.5,-16 254.5,-52"/>
<text text-anchor="start" x="180.5014" y="-30.2" font-family="Helvetica,sans-Serif" font-size="12.00" fill="#000000">reverseWait</text>
<path fill="none" stroke="#000000" stroke-width="2" d="M181.8333,-17C181.8333,-17 242.1667,-17 242.1667,-17 247.8333,-17 253.5,-22.6667 253.5,-28.3333 253.5,-28.3333 253.5,-39.6667 253.5,-39.6667 253.5,-45.3333 247.8333,-51 242.1667,-51 242.1667,-51 181.8333,-51 181.8333,-51 176.1667,-51 170.5,-45.3333 170.5,-39.6667 170.5,-39.6667 170.5,-28.3333 170.5,-28.3333 170.5,-22.6667 176.1667,-17 181.8333,-17"/>
</g>
<!-- reverse&#45;&gt;reverseWait -->
<g id="edge7" class="edge">
<title>reverse&#45;&gt;reverseWait</title>
<path fill="none" stroke="#000000" d="M212,-97.8015C212,-87.3976 212,-74.1215 212,-62.3768"/>
<polygon fill="#000000" stroke="#000000" points="215.5001,-62.1476 212,-52.1476 208.5001,-62.1476 215.5001,-62.1476"/>
<text text-anchor="middle" x="213.3895" y="-72" font-family="Helvetica,sans-Serif" font-size="10.00" fill="#000000"> </text>
</g>
</g>
</svg>
